<svg width="225" height="120" viewBox="0 0 225 120" fill="none" xmlns="http://www.w3.org/2000/svg">
<g clip-path="url(#clip0_377_44401)">
<path opacity="0.987" fill-rule="evenodd" clip-rule="evenodd" d="M224.638 0C224.759 0 224.88 0 225.001 0C225.001 17.6097 225.001 35.2194 225.001 52.829C221.825 52.829 218.65 52.829 215.475 52.829C215.445 36.2178 215.475 19.6066 215.565 2.99546C218.599 1.99366 221.623 0.995174 224.638 0Z" fill="#25343E"/>
<path opacity="0.99" fill-rule="evenodd" clip-rule="evenodd" d="M204.497 1.17969C204.678 18.3655 204.739 35.5818 204.678 52.8287C180.303 52.8287 155.928 52.8287 131.553 52.8287C131.222 61.614 126.837 67.1663 118.398 69.4853C115.838 70.1538 113.237 70.5169 110.595 70.5745C109.906 67.7767 109.21 64.9779 108.509 62.1782C110.331 62.0209 112.146 61.7939 113.952 61.4974C115.912 61.227 117.697 60.531 119.305 59.4096C120.613 58.2625 121.414 56.8253 121.709 55.098C121.843 54.3771 121.933 53.6509 121.982 52.9195C121.997 44.0327 122.042 35.1521 122.118 26.278C125.241 25.2917 128.357 24.2781 131.462 23.2372C131.553 30.075 131.583 36.9132 131.553 43.7515C144.799 43.7667 158.045 43.7515 171.291 43.7062C170.055 42.0668 168.921 40.3572 167.889 38.5776C166.574 36.0071 165.213 33.4655 163.806 30.9528C161.365 26.7799 157.872 25.5847 153.327 27.3673C151.834 27.8722 150.382 28.4773 148.973 29.1827C148.856 29.2448 148.75 29.2296 148.655 29.1373C147.31 26.384 145.963 23.6305 144.618 20.8771C148.648 18.6809 152.957 17.4706 157.546 17.2463C161.307 17.2394 164.618 18.4345 167.481 20.8317C169.967 23.1917 171.978 25.8997 173.514 28.9558C174.797 31.6452 176.218 34.2472 177.778 36.7621C180.805 41.2657 185.055 43.5804 190.525 43.7062C192.067 43.7515 193.61 43.7667 195.152 43.7515C195.137 30.5897 195.152 17.4278 195.197 4.26592C198.314 3.26196 201.413 2.23322 204.497 1.17969Z" fill="#25343E"/>
<path opacity="0.958" fill-rule="evenodd" clip-rule="evenodd" d="M19.325 23.2373C21.2238 24.9857 23.0685 26.8011 24.8593 28.6836C23.075 30.5293 21.2604 32.3447 19.4157 34.1299C17.571 32.3447 15.7565 30.5293 13.9722 28.6836C15.7584 26.8663 17.5427 25.0508 19.325 23.2373Z" fill="#25343E"/>
<path opacity="0.989" fill-rule="evenodd" clip-rule="evenodd" d="M0 51.6488C0 47.2918 0 42.9347 0 38.5777C3.17929 37.7749 6.35469 36.958 9.52621 36.1269C9.51106 40.8773 9.52621 45.6277 9.57157 50.378C9.96596 57.1869 13.5496 60.8933 20.3226 61.4975C23.2508 61.7456 26.0331 61.2312 28.6694 59.9544C31.044 58.4582 32.5108 56.3251 33.0696 53.555C33.2413 52.7151 33.3623 51.8679 33.4325 51.0134C33.4476 42.7832 33.493 34.5533 33.5686 26.3235C36.6978 25.285 39.8278 24.2562 42.9587 23.2373C43.004 30.0754 43.0192 36.9135 43.004 43.7517C47.329 43.7819 51.6537 43.7517 55.9778 43.6609C56.2122 43.0787 56.3483 42.4736 56.3861 41.8455C56.4163 36.6715 56.4466 31.4975 56.4768 26.3235C59.6077 25.3046 62.7377 24.2758 65.8669 23.2373C65.9728 28.986 65.9879 34.7348 65.9123 40.4839C65.9106 41.5705 65.7442 42.6296 65.4133 43.6609C69.0722 43.7668 72.7315 43.7819 76.3911 43.7063C76.864 43.614 77.2117 43.3567 77.4345 42.9347C78.7467 39.3405 80.2589 35.8306 81.9708 32.4052C83.476 29.4081 85.6384 27.0027 88.4577 25.1889C93.3296 22.5856 98.1082 22.7368 102.792 25.6428C106.266 28.3717 108.217 31.9572 108.644 36.3992C109.127 41.1897 108.734 45.9099 107.465 50.5595C105.266 51.9317 103.028 53.2328 100.751 54.4627C95.4853 52.9943 90.223 51.5116 84.9647 50.0149C84.4089 50.682 83.8192 51.3326 83.1956 51.9665C82.5927 52.389 81.9274 52.6614 81.1996 52.7834C68.4678 52.8288 55.736 52.844 43.004 52.8288C42.3393 60.0403 38.7708 65.2294 32.2984 68.3962C26.9419 70.6861 21.4077 71.2307 15.6956 70.03C10.6486 69.0432 6.55082 66.547 3.40222 62.5414C1.18131 59.2491 0.0472405 55.6182 0 51.6488ZM94.8085 32.5868C96.9931 32.5486 98.3994 33.5773 99.0272 35.673C99.4554 37.1393 99.6523 38.6371 99.6169 40.1662C99.6097 41.5203 99.5035 42.8667 99.2994 44.2055C99.264 44.2898 99.2041 44.3503 99.118 44.3871C95.4336 43.3548 91.7592 42.2958 88.0948 41.2101C88.8396 39.5646 89.6108 37.9307 90.4083 36.3084C91.1404 34.9106 92.1838 33.8062 93.5383 32.9952C93.9629 32.8291 94.3866 32.693 94.8085 32.5868Z" fill="#25343E"/>
<path opacity="0.966" fill-rule="evenodd" clip-rule="evenodd" d="M53.9823 57.1864C54.0778 57.1729 54.1685 57.188 54.2545 57.2318C55.8422 58.8203 57.4299 60.4088 59.0176 61.9973C60.6053 60.4088 62.193 58.8203 63.7807 57.2318C63.8714 57.1713 63.9621 57.1713 64.0529 57.2318C65.8233 58.988 67.5773 60.758 69.315 62.542C67.5307 64.3876 65.7162 66.203 63.8714 67.9883C62.2396 66.401 60.6217 64.7974 59.0176 63.1774C57.4135 64.7974 55.7956 66.401 54.1638 67.9883C52.319 66.203 50.5045 64.3876 48.7202 62.542C50.4762 60.7549 52.2302 58.9697 53.9823 57.1864Z" fill="#25343E"/>
<path opacity="0.869" fill-rule="evenodd" clip-rule="evenodd" d="M76.3009 87.0496C76.9554 86.9032 77.3183 87.1604 77.3896 87.8211C77.373 88.3219 77.1159 88.5791 76.6184 88.5927C76.099 88.5722 75.842 88.2999 75.8472 87.7757C75.8678 87.4416 76.019 87.1995 76.3009 87.0496Z" fill="#BA9660"/>
<path opacity="0.859" fill-rule="evenodd" clip-rule="evenodd" d="M198.69 87.6854C199.121 87.665 199.544 87.7104 199.96 87.8216C200.127 88.5619 199.87 88.7586 199.189 88.4116C198.641 88.4874 198.459 88.7899 198.644 89.3193C198.741 89.4463 198.861 89.5371 199.007 89.5916C199.411 89.5015 199.819 89.4409 200.232 89.4101C200.232 89.6824 200.232 89.9547 200.232 90.227C199.351 90.2805 198.474 90.3713 197.601 90.4993C197.601 90.2572 197.601 90.0153 197.601 89.7732C197.755 89.7877 197.907 89.7726 198.055 89.7278C197.476 88.7887 197.688 88.108 198.69 87.6854Z" fill="#BA9660"/>
<path opacity="0.867" fill-rule="evenodd" clip-rule="evenodd" d="M61.4213 87.867C61.8458 87.8519 62.2692 87.8671 62.6915 87.9123C62.8535 87.9301 62.9745 88.0058 63.0544 88.1393C62.9567 88.3582 62.8508 88.5701 62.7369 88.7747C62.3203 88.5144 61.9272 88.5447 61.5574 88.8655C61.4889 89.1199 61.5191 89.362 61.6482 89.5916C62.1393 89.6438 62.6383 89.6438 63.1451 89.5916C63.1451 89.8337 63.1451 90.0757 63.1451 90.3178C62.2724 90.3841 61.4105 90.5052 60.5594 90.6809C60.4852 90.4333 60.5003 90.1913 60.6048 89.9547C60.7223 89.9004 60.8432 89.855 60.9677 89.8186C60.7028 89.4221 60.6272 88.9834 60.7409 88.5024C60.8989 88.2077 61.1258 87.9959 61.4213 87.867Z" fill="#BA9660"/>
<path opacity="0.928" fill-rule="evenodd" clip-rule="evenodd" d="M0 106.022C0 105.931 0 105.84 0 105.749C1.12617 105.294 2.30561 105.082 3.53831 105.114C5.83935 105.14 7.98653 105.73 9.97984 106.884C10.8279 107.399 11.6444 107.959 12.4294 108.563C12.8271 106.359 13.0085 104.135 12.9738 101.891C12.9849 100.053 12.8791 98.2225 12.6563 96.3998C11.8255 97.1967 11.4172 98.1798 11.4315 99.3498C11.4981 100.133 11.604 100.905 11.749 101.665C10.5638 100.311 10.1102 98.738 10.3881 96.9444C10.4832 96.4424 10.6041 95.9586 10.751 95.492C9.47667 96.7928 8.97767 98.3504 9.25403 100.167C9.21103 100.313 9.15052 100.327 9.07258 100.212C8.0719 97.8203 8.46505 95.6872 10.252 93.8128C9.38468 94.0297 8.70422 94.529 8.21069 95.3105C7.7137 96.152 7.4264 97.0597 7.34879 98.0337C6.58934 95.2116 7.58733 93.3199 10.3427 92.3604C8.84559 92.2479 7.66616 92.7925 6.80444 93.9943C6.72898 94.0569 6.66849 94.0415 6.62298 93.9489C6.88587 92.4911 7.73264 91.568 9.16331 91.1804C9.857 91.0343 10.5525 91.0043 11.25 91.0896C10.4069 90.309 9.43911 90.1124 8.34678 90.4996C8.25414 90.454 8.23902 90.3936 8.30141 90.3181C9.30348 89.2702 10.4678 89.0433 11.7944 89.6373C12.1101 89.8775 12.4126 90.1346 12.7016 90.4088C12.8619 90.1895 12.998 89.9474 13.1099 89.6827C13.3101 89.1119 13.4916 88.537 13.6542 87.958C13.8488 88.8446 14.1512 89.6917 14.5615 90.4996C15.7896 89.125 17.1655 88.9585 18.6895 90.0004C19.197 90.394 19.1668 90.515 18.5988 90.3635C17.6192 90.1659 16.7724 90.408 16.0585 91.0896C17.4003 90.8863 18.61 91.1886 19.6875 91.9973C20.289 92.5501 20.5763 93.2309 20.5494 94.0397C19.6746 92.8079 18.4801 92.2479 16.9657 92.3604C19.6703 93.3389 20.6682 95.2306 19.9597 98.0337C19.8537 96.4442 19.1883 95.1589 17.9637 94.1759C17.6504 93.9725 17.3178 93.8518 16.9657 93.8128C18.8512 95.7063 19.2443 97.8694 18.1452 100.303C18.3498 98.4512 17.8205 96.8473 16.5575 95.492C16.7046 96.0212 16.8256 96.5659 16.9204 97.1259C17.1508 98.8687 16.682 100.382 15.5141 101.665C15.4839 101.635 15.4536 101.604 15.4234 101.574C15.7646 100.542 15.8705 99.4833 15.7409 98.3967C15.6146 97.5989 15.2517 96.9335 14.6522 96.3998C14.494 97.2966 14.4033 98.2043 14.38 99.1229C14.3195 100.968 14.3195 102.815 14.38 104.66C14.4517 105.971 14.603 107.272 14.8337 108.563C16.6515 107.102 18.6928 106.058 20.9577 105.432C23.0303 104.967 25.0867 105.027 27.127 105.613C27.2761 105.898 27.2004 106.095 26.9002 106.203C24.8344 105.908 22.8233 106.135 20.8669 106.884C18.6579 107.795 16.662 109.036 14.879 110.606C16.119 111.725 17.3588 112.845 18.5988 113.964C19.0524 114.297 19.5061 114.629 19.9597 114.963C20.6148 114.449 21.2953 114.433 22.001 114.917C22.6087 116.183 22.2156 116.909 20.8216 117.096C19.8718 116.976 19.0401 116.598 18.3266 115.961C16.7147 114.59 15.1572 113.153 13.6542 111.649C12.0331 113.181 10.385 114.678 8.70968 116.143C8.19949 116.561 7.6249 116.863 6.98589 117.05C5.63433 117.277 4.98413 116.717 5.03528 115.371C5.43599 114.574 6.05595 114.347 6.89516 114.69C7.00999 114.87 7.16121 114.961 7.34879 114.963C9.09577 113.578 10.7893 112.126 12.4294 110.606C9.88412 108.304 6.92045 106.821 3.53831 106.158C2.47694 105.975 1.41848 105.99 0.362903 106.203C0.220204 106.18 0.0992363 106.12 0 106.022Z" fill="#BA9660"/>
<path opacity="0.929" fill-rule="evenodd" clip-rule="evenodd" d="M34.2041 88.0479C34.4764 88.0479 34.7487 88.0479 35.021 88.0479C35.021 97.7305 35.021 107.412 35.021 117.095C34.7487 117.095 34.4764 117.095 34.2041 117.095C34.2041 107.412 34.2041 97.7305 34.2041 88.0479Z" fill="#25343E"/>
<path opacity="0.883" fill-rule="evenodd" clip-rule="evenodd" d="M92.9939 88.0483C93.4158 88.0015 93.7333 88.1528 93.9465 88.5022C94.1951 89.2402 93.9529 89.694 93.2207 89.8638C92.4432 89.6639 92.201 89.1798 92.4949 88.4114C92.631 88.2327 92.797 88.1117 92.9939 88.0483Z" fill="#BA9660"/>
<path opacity="0.877" fill-rule="evenodd" clip-rule="evenodd" d="M95.1724 88.0479C96.1468 88.0905 96.4643 88.5747 96.125 89.5002C95.5698 90.012 95.0862 89.9514 94.6734 89.3187C94.5182 88.7537 94.6843 88.3301 95.1724 88.0479Z" fill="#BA9660"/>
<path opacity="0.941" fill-rule="evenodd" clip-rule="evenodd" d="M104.97 88.0479C105.485 88.0479 105.998 88.0479 106.513 88.0479C106.513 90.9226 106.513 93.7964 106.513 96.6711C109.234 96.6711 111.956 96.6711 114.678 96.6711C114.678 94.9764 114.678 93.2826 114.678 91.5879C115.161 91.5879 115.646 91.5879 116.129 91.5879C116.129 93.2826 116.129 94.9764 116.129 96.6711C117.737 96.7111 119.34 96.6657 120.938 96.535C120.968 96.505 120.999 96.4742 121.029 96.4442C119.902 95.3904 119.176 94.105 118.851 92.5864C120.393 91.1795 122.177 90.7708 124.204 91.361C124.741 91.509 125.225 91.7504 125.656 92.0872C125.579 93.8754 124.853 95.3277 123.478 96.4442C123.65 96.5323 123.831 96.5931 124.023 96.6258C125.504 96.6711 126.986 96.6866 128.468 96.6711C128.468 93.7964 128.468 90.9226 128.468 88.0479C128.952 88.0479 129.436 88.0479 129.92 88.0479C129.92 90.9226 129.92 93.7964 129.92 96.6711C130.979 96.6711 132.036 96.6711 133.095 96.6711C133.095 93.7964 133.095 90.9226 133.095 88.0479C133.61 88.0479 134.123 88.0479 134.638 88.0479C134.638 91.3456 134.638 94.6442 134.638 97.942C131.009 97.9574 127.379 97.942 123.75 97.8966C123.215 97.7885 122.716 97.5916 122.253 97.3066C121.791 97.5916 121.292 97.7885 120.757 97.8966C115.494 97.942 110.232 97.9574 104.97 97.942C104.97 94.6442 104.97 91.3456 104.97 88.0479ZM121.845 92.4049C122.596 92.3441 123.322 92.4503 124.023 92.7226C123.981 94.0397 123.391 95.0536 122.253 95.7634C121.407 95.0845 120.817 94.2221 120.484 93.1764C120.508 93.0621 120.569 92.9713 120.666 92.9041C121.05 92.6908 121.443 92.5247 121.845 92.4049Z" fill="#BA9660"/>
<path opacity="0.879" fill-rule="evenodd" clip-rule="evenodd" d="M140.988 88.0483C141.41 88.0015 141.728 88.1528 141.941 88.5022C142.186 89.5883 141.778 89.9968 140.716 89.7276C140.36 89.3417 140.283 88.903 140.489 88.4114C140.625 88.2327 140.791 88.1117 140.988 88.0483Z" fill="#BA9660"/>
<path opacity="0.877" fill-rule="evenodd" clip-rule="evenodd" d="M143.166 88.0488C144.14 88.0915 144.458 88.5757 144.119 89.5012C143.563 90.0129 143.08 89.9524 142.667 89.3196C142.512 88.7547 142.678 88.331 143.166 88.0488Z" fill="#BA9660"/>
<path opacity="0.929" fill-rule="evenodd" clip-rule="evenodd" d="M160.676 88.0479C161.19 88.0479 161.704 88.0479 162.218 88.0479C162.218 90.9226 162.218 93.7964 162.218 96.6711C164.824 96.7138 167.424 96.6684 170.021 96.535C170.05 96.505 170.081 96.4742 170.111 96.4442C169.027 95.4094 168.331 94.1541 168.025 92.6772C168.38 92.1571 168.865 91.7786 169.476 91.5426C171.264 90.8935 172.988 91.0297 174.648 91.951C174.75 93.8182 174.054 95.3159 172.561 96.4442C172.732 96.5323 172.914 96.5931 173.105 96.6258C175.07 96.6711 177.036 96.6866 179.002 96.6711C179.002 93.7964 179.002 90.9226 179.002 88.0479C179.517 88.0479 180.03 88.0479 180.545 88.0479C180.545 91.3456 180.545 94.6442 180.545 97.942C177.974 97.9574 175.403 97.942 172.833 97.8966C172.298 97.7885 171.799 97.5916 171.336 97.3066C170.882 97.617 170.383 97.8131 169.839 97.8966C166.784 97.942 163.731 97.9574 160.676 97.942C160.676 94.6442 160.676 91.3456 160.676 88.0479ZM170.928 92.4049C171.682 92.3368 172.408 92.443 173.105 92.7226C173.096 94.056 172.506 95.069 171.336 95.7634C170.474 95.0681 169.884 94.1904 169.567 93.1311C169.61 93.0421 169.67 92.9668 169.748 92.9041C170.133 92.6908 170.526 92.5247 170.928 92.4049Z" fill="#BA9660"/>
<path opacity="0.974" fill-rule="evenodd" clip-rule="evenodd" d="M182.631 88.0479C183.115 88.0479 183.599 88.0479 184.083 88.0479C184.083 91.3456 184.083 94.6442 184.083 97.942C183.599 97.942 183.115 97.942 182.631 97.942C182.631 94.6442 182.631 91.3456 182.631 88.0479Z" fill="#BA9660"/>
<path opacity="0.876" fill-rule="evenodd" clip-rule="evenodd" d="M190.434 88.0488C191.409 88.0915 191.726 88.5757 191.387 89.5012C190.877 89.9945 190.392 89.9643 189.935 89.4104C189.874 89.1079 189.874 88.8052 189.935 88.5027C190.058 88.2985 190.224 88.1472 190.434 88.0488Z" fill="#BA9660"/>
<path opacity="0.883" fill-rule="evenodd" clip-rule="evenodd" d="M192.702 88.0483C193.124 88.0015 193.441 88.1528 193.655 88.5022C193.903 89.2402 193.661 89.694 192.929 89.8638C192.363 89.8083 192.075 89.4906 192.067 88.9107C192.095 88.4753 192.307 88.1879 192.702 88.0483Z" fill="#BA9660"/>
<path opacity="0.943" fill-rule="evenodd" clip-rule="evenodd" d="M219.919 88.0479C220.434 88.0479 220.947 88.0479 221.462 88.0479C221.462 91.3456 221.462 94.6442 221.462 97.942C211.089 97.9574 200.715 97.942 190.343 97.8966C188.74 97.5217 187.924 96.5078 187.893 94.8557C187.946 93.25 188.732 92.2061 190.252 91.7241C191.396 91.597 192.545 91.5516 193.7 91.5879C193.7 93.2826 193.7 94.9764 193.7 96.6711C195.242 96.6711 196.784 96.6711 198.327 96.6711C198.327 94.9764 198.327 93.2826 198.327 91.5879C198.81 91.5879 199.295 91.5879 199.778 91.5879C199.778 93.2826 199.778 94.9764 199.778 96.6711C201.169 96.6711 202.561 96.6711 203.952 96.6711C203.952 94.9764 203.952 93.2826 203.952 91.5879C204.435 91.5879 204.92 91.5879 205.403 91.5879C205.403 93.2826 205.403 94.9764 205.403 96.6711C206.553 96.6866 207.702 96.6711 208.851 96.6258C208.051 95.532 208.005 94.3973 208.715 93.2218C209.783 92.0963 211.038 91.8394 212.48 92.4503C213.095 92.8488 213.473 93.4088 213.614 94.1295C213.659 94.9764 213.675 95.8233 213.659 96.6711C214.204 96.6711 214.748 96.6711 215.292 96.6711C215.308 95.551 215.292 94.4318 215.247 93.3126C215.039 91.8639 214.207 91.0624 212.752 90.9072C211.631 90.7929 210.543 90.9289 209.486 91.3156C209.313 90.9135 209.163 90.5054 209.032 90.0902C214.856 88.458 217.456 90.6516 216.835 96.6711C217.863 96.6711 218.891 96.6711 219.919 96.6711C219.919 93.7964 219.919 90.9226 219.919 88.0479ZM191.068 92.8587C191.461 92.8587 191.855 92.8587 192.248 92.8587C192.248 94.1295 192.248 95.4003 192.248 96.6711C189.868 96.9262 189.037 95.9277 189.753 93.6757C190.118 93.2627 190.556 92.9904 191.068 92.8587ZM210.937 93.4941C211.455 93.5187 211.832 93.7601 212.071 94.2203C212.197 95.0309 212.242 95.8479 212.208 96.6711C210.286 96.9126 209.515 96.0957 209.894 94.2203C210.119 93.7837 210.467 93.5423 210.937 93.4941Z" fill="#BA9660"/>
<path opacity="0.917" fill-rule="evenodd" clip-rule="evenodd" d="M225 88.0479C225 91.3456 225 94.6442 225 97.942C224.486 97.942 223.972 97.942 223.458 97.942C223.458 94.6442 223.458 91.3456 223.458 88.0479C223.972 88.0479 224.486 88.0479 225 88.0479Z" fill="#BA9660"/>
<path opacity="0.872" fill-rule="evenodd" clip-rule="evenodd" d="M75.3038 88.6841C75.7258 88.6372 76.0434 88.7886 76.2564 89.1379C76.5015 90.224 76.0933 90.6325 75.0316 90.3634C74.6578 89.9808 74.5822 89.542 74.8048 89.0472C74.9409 88.8684 75.1072 88.7474 75.3038 88.6841Z" fill="#BA9660"/>
<path opacity="0.873" fill-rule="evenodd" clip-rule="evenodd" d="M77.4802 88.6836C78.4547 88.7263 78.7722 89.2104 78.4328 90.1359C77.8779 90.6477 77.3941 90.5872 76.9812 89.9544C76.8014 89.3719 76.9677 88.9483 77.4802 88.6836Z" fill="#BA9660"/>
<path opacity="0.875" fill-rule="evenodd" clip-rule="evenodd" d="M115.132 88.6841C115.946 88.667 116.294 89.0603 116.175 89.8642C116.064 90.2773 115.792 90.4891 115.358 90.4996C114.626 90.325 114.385 89.8712 114.633 89.138C114.733 88.9008 114.899 88.7495 115.132 88.6841Z" fill="#BA9660"/>
<path opacity="0.877" fill-rule="evenodd" clip-rule="evenodd" d="M45.6353 89.8638C46.0574 89.8169 46.3749 89.9683 46.5879 90.3176C46.8331 91.4033 46.4248 91.8117 45.3631 91.543C45.0061 91.1573 44.9305 90.7184 45.1363 90.2269C45.2724 90.0481 45.4387 89.9271 45.6353 89.8638Z" fill="#BA9660"/>
<path opacity="0.937" fill-rule="evenodd" clip-rule="evenodd" d="M54.3451 91.5889C55.2524 91.5889 56.1596 91.5889 57.0669 91.5889C57.082 94.0706 57.0669 96.5513 57.0215 99.0321C56.8229 99.8364 56.3542 100.426 55.6153 100.802C54.2152 101.278 52.8543 101.187 51.5326 100.53C51.4853 100.479 51.455 100.418 51.4419 100.348C51.6013 99.9635 51.813 99.6158 52.077 99.3044C53.0203 99.8509 53.988 99.9262 54.9802 99.5314C55.5063 99.1293 55.718 98.5992 55.6153 97.9429C52.3282 98.3305 51.0127 96.909 51.6687 93.6766C52.2177 92.5329 53.1098 91.8367 54.3451 91.5889ZM54.6173 92.8597C54.95 92.8597 55.2826 92.8597 55.6153 92.8597C55.6153 94.1305 55.6153 95.4013 55.6153 96.6721C53.3141 96.9262 52.5429 95.9577 53.3018 93.7674C53.632 93.2999 54.0706 92.9967 54.6173 92.8597Z" fill="#BA9660"/>
<path opacity="0.935" fill-rule="evenodd" clip-rule="evenodd" d="M61.8755 91.5889C62.813 91.5889 63.7505 91.5889 64.688 91.5889C64.688 93.2836 64.688 94.9774 64.688 96.6721C67.0771 96.6721 69.4662 96.6721 71.8553 96.6721C71.8553 95.3105 71.8553 93.9489 71.8553 92.5874C72.3695 92.5874 72.8835 92.5874 73.3977 92.5874C73.3977 93.9489 73.3977 95.3105 73.3977 96.6721C73.9428 96.6875 74.4872 96.6721 75.0307 96.6267C75.4454 96.4842 75.7025 96.1964 75.8019 95.7644C75.8473 94.706 75.8624 93.6467 75.8473 92.5874C76.3311 92.5874 76.815 92.5874 77.2989 92.5874C77.2571 93.7156 77.3025 94.8358 77.435 95.9459C78.0161 96.6267 78.757 96.8681 79.6577 96.6721C79.6577 94.9774 79.6577 93.2836 79.6577 91.5889C80.1416 91.5889 80.6255 91.5889 81.1094 91.5889C81.1094 93.2836 81.1094 94.9774 81.1094 96.6721C82.44 96.6721 83.7706 96.6721 85.1013 96.6721C85.1013 94.9774 85.1013 93.2836 85.1013 91.5889C85.6154 91.5889 86.1295 91.5889 86.6436 91.5889C86.6436 93.7066 86.6436 95.8252 86.6436 97.9429C83.8007 97.9583 80.958 97.9429 78.1154 97.8975C77.6342 97.7332 77.2108 97.4763 76.8452 97.1259C76.4904 97.4999 76.0671 97.7568 75.5751 97.8975C71.9461 97.9429 68.3171 97.9583 64.688 97.9429C64.6942 100.055 63.6357 101.114 61.5126 101.12C60.6503 101.108 59.8338 100.912 59.063 100.53C59.0981 100.08 59.2796 99.6712 59.6073 99.3044C60.5081 99.8082 61.4455 99.9135 62.4198 99.6221C63.0169 99.2291 63.2891 98.669 63.2364 97.9429C59.7219 98.2542 58.4366 96.7111 59.3805 93.3135C59.9574 92.3668 60.789 91.7922 61.8755 91.5889ZM62.1477 92.8597C62.5106 92.8597 62.8735 92.8597 63.2364 92.8597C63.2364 94.1305 63.2364 95.4013 63.2364 96.6721C61.2478 97.0869 60.3859 96.3008 60.6507 94.312C60.9027 93.5604 61.4017 93.0766 62.1477 92.8597Z" fill="#BA9660"/>
<path opacity="0.95" fill-rule="evenodd" clip-rule="evenodd" d="M93.1759 91.5889C94.2038 91.5889 95.2326 91.5889 96.2606 91.5889C96.2606 93.2836 96.2606 94.9774 96.2606 96.6721C97.8637 96.6721 99.4659 96.6721 101.069 96.6721C101.069 94.9774 101.069 93.2836 101.069 91.5889C101.553 91.5889 102.037 91.5889 102.521 91.5889C102.521 93.7066 102.521 95.8252 102.521 97.9429C99.3153 97.9583 96.109 97.9429 92.9037 97.8975C91.2888 97.5526 90.4719 96.5541 90.4541 94.902C90.5172 93.0993 91.4249 91.9946 93.1759 91.5889ZM93.5388 92.8597C93.9625 92.8597 94.3853 92.8597 94.8089 92.8597C94.8089 94.1305 94.8089 95.4013 94.8089 96.6721C94.1956 96.7066 93.5914 96.6612 92.9944 96.5359C92.255 96.2218 91.922 95.6618 91.9964 94.8566C91.9901 93.7774 92.5045 93.1111 93.5388 92.8597Z" fill="#BA9660"/>
<path opacity="0.941" fill-rule="evenodd" clip-rule="evenodd" d="M141.17 91.5889C142.198 91.5889 143.227 91.5889 144.255 91.5889C144.255 93.2836 144.255 94.9774 144.255 96.6721C146.856 96.6721 149.456 96.6721 152.057 96.6721C152.042 95.7335 152.057 94.7958 152.102 93.8582C152.349 92.7335 153.03 92.0228 154.144 91.725C156.879 91.4963 158.073 92.7526 157.727 95.492C157.527 96.6049 156.907 97.3765 155.868 97.8067C150.882 97.9565 145.892 97.9864 140.898 97.8975C139.283 97.5526 138.466 96.5541 138.448 94.902C138.514 93.0966 139.422 91.9928 141.17 91.5889ZM141.533 92.8597C141.957 92.8597 142.379 92.8597 142.803 92.8597C142.803 94.1305 142.803 95.4013 142.803 96.6721C142.19 96.7066 141.586 96.6612 140.989 96.5359C140.249 96.2218 139.916 95.6618 139.991 94.8566C139.984 93.7774 140.499 93.1111 141.533 92.8597ZM154.507 92.9504C155.691 92.8942 156.295 93.4687 156.321 94.6751C156.118 96.338 155.18 97.0034 153.509 96.6721C153.473 95.7889 153.519 94.9111 153.645 94.0397C153.784 93.5468 154.07 93.1837 154.507 92.9504Z" fill="#BA9660"/>
<path opacity="0.934" fill-rule="evenodd" clip-rule="evenodd" d="M48.0844 92.042C48.5682 92.042 49.0521 92.042 49.536 92.042C49.5771 94.3757 49.5317 96.7058 49.3999 99.0314C49.1601 99.9373 48.6007 100.557 47.7215 100.892C46.4082 101.34 45.1077 101.31 43.8202 100.801C42.7534 100.059 42.2393 99.0296 42.2779 97.7152C42.323 96.7331 42.5044 95.78 42.8223 94.8559C43.3099 94.826 43.7938 94.8568 44.2739 94.9467C43.8462 96.1612 43.7403 97.4011 43.9563 98.6683C44.1616 99.2674 44.5699 99.645 45.1811 99.803C46.116 100.004 46.9477 99.8075 47.6761 99.2129C47.8742 98.907 47.9952 98.5748 48.039 98.2145C48.0844 96.1576 48.0995 94.0998 48.0844 92.042Z" fill="#BA9660"/>
<path opacity="0.888" fill-rule="evenodd" clip-rule="evenodd" d="M85.4641 99.0322C86.1546 98.9233 86.5478 99.2102 86.6435 99.8946C86.6455 100.485 86.3583 100.772 85.7816 100.757C85.5466 100.768 85.335 100.708 85.1465 100.575C85.0074 100.193 84.9771 99.8002 85.0558 99.3953C85.1825 99.2528 85.3186 99.1321 85.4641 99.0322Z" fill="#BA9660"/>
<path opacity="0.884" fill-rule="evenodd" clip-rule="evenodd" d="M99.3454 99.0319C100.158 99.0128 100.506 99.4068 100.389 100.212C100.357 100.425 100.252 100.591 100.071 100.711C99.0578 100.908 98.6495 100.5 98.8464 99.4858C98.9471 99.2489 99.1131 99.0973 99.3454 99.0319Z" fill="#BA9660"/>
<path opacity="0.892" fill-rule="evenodd" clip-rule="evenodd" d="M101.522 99.0318C102.476 99.0001 102.824 99.4539 102.566 100.393C102.266 100.741 101.888 100.846 101.432 100.711C100.809 100.117 100.84 99.5565 101.522 99.0318Z" fill="#BA9660"/>
<path opacity="0.894" fill-rule="evenodd" clip-rule="evenodd" d="M203.317 99.0312C204.243 99.0367 204.56 99.4906 204.27 100.393C204.225 100.559 204.118 100.665 203.952 100.711C202.891 100.873 202.513 100.435 202.818 99.3943C202.954 99.2155 203.12 99.0948 203.317 99.0312Z" fill="#BA9660"/>
<path opacity="0.886" fill-rule="evenodd" clip-rule="evenodd" d="M205.494 99.0323C206.375 99.0077 206.723 99.4316 206.538 100.303C206.467 100.466 206.361 100.602 206.22 100.712C205.257 100.928 204.849 100.55 204.995 99.5769C205.088 99.3182 205.254 99.1366 205.494 99.0323Z" fill="#BA9660"/>
<path opacity="0.929" fill-rule="evenodd" clip-rule="evenodd" d="M75.0306 104.115C75.5448 104.115 76.0588 104.115 76.573 104.115C76.573 107.444 76.573 110.772 76.573 114.1C70.7363 114.1 64.8996 114.1 59.0629 114.1C59.0528 116.219 57.9792 117.247 55.8421 117.186C54.9225 117.257 54.0908 117.03 53.3472 116.506C53.5132 116.095 53.7551 115.748 54.073 115.462C54.9105 115.911 55.7874 116.017 56.704 115.779C57.3717 115.427 57.6741 114.868 57.6113 114.1C54.4427 114.516 53.0969 113.154 53.574 110.015C54.1231 108.59 55.1665 107.819 56.704 107.701C57.4897 107.655 58.276 107.64 59.0629 107.655C59.0629 109.38 59.0629 111.105 59.0629 112.829C61.1194 112.829 63.1758 112.829 65.2322 112.829C65.2322 111.105 65.2322 109.38 65.2322 107.655C65.7464 107.655 66.2604 107.655 66.7746 107.655C66.7746 109.38 66.7746 111.105 66.7746 112.829C67.9842 112.829 69.194 112.829 70.4036 112.829C70.4036 111.105 70.4036 109.38 70.4036 107.655C70.9178 107.655 71.4318 107.655 71.946 107.655C71.946 109.38 71.946 111.105 71.946 112.829C72.9742 112.829 74.0024 112.829 75.0306 112.829C75.0306 109.925 75.0306 107.02 75.0306 104.115ZM56.9762 108.926C57.1879 108.926 57.3996 108.926 57.6113 108.926C57.6113 110.227 57.6113 111.529 57.6113 112.829C55.2716 113.051 54.5005 112.052 55.2978 109.834C55.7407 109.302 56.3001 109 56.9762 108.926Z" fill="#BA9660"/>
<path opacity="0.965" fill-rule="evenodd" clip-rule="evenodd" d="M78.6597 104.115C79.1438 104.115 79.6279 104.115 80.112 104.115C80.112 107.444 80.112 110.772 80.112 114.1C79.6279 114.1 79.1438 114.1 78.6597 114.1C78.6597 110.772 78.6597 107.444 78.6597 104.115Z" fill="#BA9660"/>
<path opacity="0.94" fill-rule="evenodd" clip-rule="evenodd" d="M123.841 104.115C124.324 104.115 124.809 104.115 125.292 104.115C125.292 107.444 125.292 110.772 125.292 114.1C123.78 114.116 122.267 114.1 120.756 114.055C120.203 113.938 119.704 113.711 119.259 113.374C118.791 113.736 118.262 113.963 117.671 114.055C114.768 114.116 111.865 114.116 108.962 114.055C108.352 113.959 107.853 113.671 107.465 113.192C107.106 113.652 106.637 113.939 106.058 114.055C98.6188 114.1 91.1793 114.116 83.7397 114.1C83.7397 113.676 83.7397 113.253 83.7397 112.829C85.3123 112.829 86.8849 112.829 88.4575 112.829C88.5113 111.998 88.4357 111.181 88.2307 110.378C87.9108 109.847 87.442 109.53 86.8244 109.425C86.0084 109.38 85.1919 109.365 84.3748 109.38C84.3748 108.956 84.3748 108.533 84.3748 108.109C85.3128 108.094 86.2503 108.109 87.1873 108.155C88.5875 108.347 89.4797 109.119 89.8637 110.469C89.9727 111.253 90.0181 112.039 89.9998 112.829C92.3587 112.845 94.7176 112.829 97.0764 112.784C96.9059 112.513 96.7698 112.227 96.6682 111.922C96.5094 111.189 96.328 110.463 96.1238 109.743C95.7691 108.983 95.1794 108.696 94.3547 108.881C93.8647 108.948 93.4111 109.115 92.9938 109.38C92.8277 109.048 92.6617 108.716 92.4948 108.381C92.4267 108.278 92.4422 108.187 92.5401 108.109C93.7695 107.525 95.0396 107.419 96.3506 107.791C96.9077 108.072 97.2851 108.51 97.4847 109.108C97.7052 109.885 97.8866 110.672 98.0291 111.468C98.1524 111.927 98.3493 112.35 98.6188 112.739C99.918 112.829 101.218 112.859 102.52 112.829C102.52 111.225 102.52 109.622 102.52 108.018C103.004 108.018 103.488 108.018 103.972 108.018C103.972 109.622 103.972 111.225 103.972 112.829C104.487 112.845 105 112.829 105.514 112.784C106.054 112.638 106.371 112.289 106.467 111.74C106.512 110.5 106.527 109.259 106.512 108.018C106.995 108.018 107.48 108.018 107.964 108.018C107.948 109.35 107.964 110.682 108.009 112.012C108.58 112.719 109.321 112.992 110.232 112.829C110.232 111.105 110.232 109.38 110.232 107.655C110.715 107.655 111.2 107.655 111.683 107.655C111.683 109.38 111.683 111.105 111.683 112.829C112.62 112.829 113.559 112.829 114.496 112.829C114.48 111.891 114.496 110.953 114.541 110.015C114.883 108.527 115.821 107.771 117.354 107.746C119.244 107.883 120.197 108.897 120.212 110.787C120.224 111.252 120.163 111.706 120.03 112.149C120.254 112.518 120.586 112.73 121.028 112.784C121.965 112.829 122.902 112.845 123.841 112.829C123.841 109.925 123.841 107.02 123.841 104.115ZM117.127 109.017C118.183 109.12 118.727 109.71 118.76 110.787C118.557 112.456 117.619 113.137 115.947 112.829C115.912 111.946 115.957 111.068 116.083 110.197C116.23 109.612 116.578 109.218 117.127 109.017Z" fill="#BA9660"/>
<path opacity="0.965" fill-rule="evenodd" clip-rule="evenodd" d="M127.379 104.115C127.863 104.115 128.348 104.115 128.832 104.115C128.832 107.444 128.832 110.772 128.832 114.1C128.348 114.1 127.863 114.1 127.379 114.1C127.379 110.772 127.379 107.444 127.379 104.115Z" fill="#BA9660"/>
<path opacity="0.965" fill-rule="evenodd" clip-rule="evenodd" d="M150.786 104.115C151.27 104.115 151.755 104.115 152.238 104.115C152.238 107.444 152.238 110.772 152.238 114.1C151.755 114.1 151.27 114.1 150.786 114.1C150.786 110.772 150.786 107.444 150.786 104.115Z" fill="#BA9660"/>
<path opacity="0.931" fill-rule="evenodd" clip-rule="evenodd" d="M172.833 104.115C173.348 104.115 173.861 104.115 174.376 104.115C174.376 107.444 174.376 110.772 174.376 114.1C168.63 114.1 162.883 114.1 157.138 114.1C157.269 116.374 156.211 117.387 153.962 117.141C153.577 117.069 153.244 116.903 152.964 116.642C153.125 116.327 153.276 116.009 153.418 115.689C153.851 115.848 154.304 115.909 154.779 115.87C155.119 115.741 155.376 115.514 155.55 115.189C155.683 112.682 155.729 110.172 155.686 107.655C156.17 107.655 156.654 107.655 157.138 107.655C157.138 109.38 157.138 111.105 157.138 112.829C160.646 112.859 164.154 112.829 167.662 112.739C167.501 112.447 167.365 112.144 167.254 111.831C167.095 111.098 166.913 110.372 166.709 109.652C166.447 109.103 166.008 108.831 165.394 108.835C164.761 108.88 164.171 109.061 163.625 109.38C163.411 109.011 163.215 108.633 163.035 108.245C163.773 107.751 164.589 107.524 165.485 107.565C166.949 107.487 167.871 108.153 168.252 109.562C168.376 110.46 168.588 111.338 168.887 112.194C168.967 112.43 169.103 112.627 169.295 112.784C170.474 112.829 171.654 112.845 172.833 112.829C172.833 109.925 172.833 107.02 172.833 104.115Z" fill="#BA9660"/>
<path opacity="0.908" fill-rule="evenodd" clip-rule="evenodd" d="M176.372 104.115C176.886 104.115 177.4 104.115 177.914 104.115C177.914 107.444 177.914 110.772 177.914 114.1C177.4 114.1 176.886 114.1 176.372 114.1C176.372 110.772 176.372 107.444 176.372 104.115Z" fill="#BA9660"/>
<path opacity="0.934" fill-rule="evenodd" clip-rule="evenodd" d="M219.919 104.115C220.434 104.115 220.947 104.115 221.462 104.115C221.462 107.444 221.462 110.772 221.462 114.1C220.07 114.116 218.679 114.1 217.288 114.055C216.736 113.938 216.237 113.711 215.791 113.374C215.323 113.736 214.794 113.963 214.203 114.055C211.3 114.116 208.397 114.116 205.494 114.055C204.884 113.959 204.385 113.671 203.997 113.192C203.638 113.652 203.169 113.939 202.591 114.055C195.635 114.1 188.68 114.116 181.724 114.1C181.724 113.676 181.724 113.253 181.724 112.829C183.266 112.829 184.808 112.829 186.351 112.829C186.366 112.133 186.351 111.437 186.305 110.742C186.057 109.973 185.528 109.534 184.718 109.425C183.902 109.38 183.085 109.365 182.268 109.38C182.268 108.956 182.268 108.533 182.268 108.109C183.206 108.094 184.143 108.109 185.08 108.155C186.403 108.329 187.296 109.04 187.757 110.288C187.883 111.129 187.928 111.976 187.893 112.829C190.283 112.845 192.672 112.829 195.06 112.784C194.873 112.556 194.737 112.299 194.652 112.012C194.463 111.189 194.252 110.372 194.017 109.562C193.595 108.926 193.005 108.699 192.248 108.881C191.781 108.976 191.342 109.142 190.932 109.38C190.672 108.976 190.536 108.552 190.524 108.109C191.654 107.56 192.833 107.424 194.062 107.701C194.857 108.042 195.356 108.632 195.559 109.471C195.704 110.365 195.915 111.243 196.194 112.103C196.296 112.353 196.432 112.58 196.603 112.784C197.418 112.829 198.235 112.845 199.052 112.829C199.052 111.225 199.052 109.622 199.052 108.018C199.536 108.018 200.02 108.018 200.504 108.018C200.504 109.622 200.504 111.225 200.504 112.829C201.019 112.845 201.533 112.829 202.046 112.784C202.586 112.638 202.904 112.289 202.999 111.74C203.044 110.5 203.06 109.259 203.044 108.018C203.528 108.018 204.012 108.018 204.496 108.018C204.48 109.35 204.496 110.682 204.541 112.012C205.113 112.719 205.853 112.992 206.764 112.829C206.764 111.105 206.764 109.38 206.764 107.655C207.248 107.655 207.732 107.655 208.216 107.655C208.216 109.38 208.216 111.105 208.216 112.829C209.153 112.829 210.091 112.829 211.028 112.829C211.013 111.891 211.028 110.953 211.073 110.015C211.415 108.527 212.354 107.771 213.886 107.746C215.777 107.883 216.729 108.897 216.744 110.787C216.756 111.252 216.696 111.706 216.562 112.149C216.786 112.518 217.118 112.73 217.56 112.784C218.346 112.829 219.133 112.845 219.919 112.829C219.919 109.925 219.919 107.02 219.919 104.115ZM213.659 109.017C214.715 109.12 215.26 109.71 215.292 110.787C215.089 112.456 214.152 113.137 212.48 112.829C212.444 111.946 212.49 111.068 212.616 110.197C212.763 109.612 213.11 109.218 213.659 109.017Z" fill="#BA9660"/>
<path opacity="0.908" fill-rule="evenodd" clip-rule="evenodd" d="M225 104.115C225 107.444 225 110.772 225 114.1C224.486 114.1 223.972 114.1 223.458 114.1C223.458 110.772 223.458 107.444 223.458 104.115C223.972 104.115 224.486 104.115 225 104.115Z" fill="#BA9660"/>
<path opacity="0.875" fill-rule="evenodd" clip-rule="evenodd" d="M70.7663 104.841C71.7334 104.735 72.1115 105.158 71.9003 106.112C71.6375 106.534 71.2595 106.67 70.7663 106.52C70.3635 106.25 70.2274 105.872 70.358 105.386C70.4123 105.136 70.5484 104.955 70.7663 104.841Z" fill="#BA9660"/>
<path opacity="0.931" fill-rule="evenodd" clip-rule="evenodd" d="M144.98 107.564C147.377 107.466 148.511 108.616 148.382 111.014C148.235 112.674 147.343 113.627 145.706 113.873C144.647 113.903 143.589 113.934 142.53 113.964C142.274 114.039 142.107 114.206 142.031 114.463C141.986 115.673 141.971 116.883 141.986 118.094C141.503 118.094 141.018 118.094 140.535 118.094C140.495 116.606 140.54 115.124 140.671 113.646C141.084 112.872 141.735 112.539 142.621 112.648C142.606 111.8 142.621 110.953 142.667 110.106C142.889 108.75 143.66 107.902 144.98 107.564ZM145.252 108.835C146.185 108.814 146.714 109.268 146.84 110.197C147.089 111.533 146.56 112.334 145.252 112.602C144.86 112.648 144.467 112.663 144.073 112.648C144.041 111.795 144.086 110.948 144.209 110.106C144.324 109.477 144.672 109.053 145.252 108.835Z" fill="#BA9660"/>
<path opacity="0.924" fill-rule="evenodd" clip-rule="evenodd" d="M49.6272 107.655C50.4958 107.54 51.282 107.736 51.9861 108.245C51.8082 108.556 51.6419 108.873 51.4871 109.198C51.4246 109.276 51.349 109.336 51.2603 109.38C49.7015 108.843 48.643 109.358 48.0849 110.923C48.2057 111.33 48.4476 111.648 48.8107 111.876C49.3863 112.194 49.9306 112.557 50.4438 112.965C51.4202 113.944 51.5563 115.018 50.852 116.188C50.2923 116.667 49.642 116.955 48.9014 117.05C47.3893 117.111 45.8773 117.111 44.3651 117.05C43.1813 116.773 42.5008 116.031 42.3238 114.826C42.207 113.713 42.3128 112.624 42.6414 111.558C43.129 111.528 43.6128 111.559 44.093 111.649C43.786 112.563 43.6802 113.501 43.7754 114.463C43.8948 115.126 44.2729 115.566 44.9095 115.779C46.1191 115.84 47.3289 115.84 48.5385 115.779C49.0614 115.692 49.4697 115.435 49.7633 115.008C49.8274 114.783 49.7972 114.572 49.6726 114.372C49.1243 113.833 48.5043 113.395 47.8127 113.056C46.6445 112.275 46.327 111.231 46.8601 109.924C47.4769 108.776 48.3993 108.02 49.6272 107.655Z" fill="#BA9660"/>
<path opacity="0.937" fill-rule="evenodd" clip-rule="evenodd" d="M134.366 107.655C135.122 107.655 135.879 107.655 136.634 107.655C136.65 110.137 136.634 112.618 136.589 115.099C136.312 116.283 135.571 116.964 134.366 117.141C133.406 117.258 132.469 117.167 131.554 116.869C131.339 116.791 131.157 116.671 131.009 116.505C131.137 116.081 131.364 115.733 131.69 115.462C132.659 115.988 133.641 116.033 134.638 115.598C135.079 115.197 135.261 114.698 135.183 114.1C131.78 114.373 130.495 112.86 131.327 109.561C132.013 108.409 133.026 107.773 134.366 107.655ZM134.548 108.926C134.759 108.926 134.971 108.926 135.183 108.926C135.183 110.227 135.183 111.528 135.183 112.829C133.13 113.151 132.298 112.303 132.688 110.288C133.032 109.443 133.652 108.99 134.548 108.926Z" fill="#BA9660"/>
<path opacity="0.891" fill-rule="evenodd" clip-rule="evenodd" d="M65.5045 115.189C66.5648 115.071 66.9429 115.525 66.6386 116.551C66.1548 117.035 65.6708 117.035 65.187 116.551C65.1265 116.218 65.1265 115.885 65.187 115.552C65.2496 115.384 65.3554 115.264 65.5045 115.189Z" fill="#BA9660"/>
<path opacity="0.891" fill-rule="evenodd" clip-rule="evenodd" d="M95.6259 115.189C96.593 115.083 96.9714 115.506 96.76 116.46C96.5295 116.874 96.182 117.011 95.7166 116.868C95.1369 116.481 95.0307 115.981 95.3991 115.37C95.4889 115.319 95.5651 115.259 95.6259 115.189Z" fill="#BA9660"/>
<path opacity="0.894" fill-rule="evenodd" clip-rule="evenodd" d="M192.43 115.189C193.49 115.069 193.868 115.523 193.564 116.55C193.136 116.992 192.683 117.022 192.204 116.641C191.964 116.095 192.039 115.611 192.43 115.189Z" fill="#BA9660"/>
<path opacity="0.881" fill-rule="evenodd" clip-rule="evenodd" d="M45.7262 120C45.4842 120 45.2424 120 45.0004 120C44.4785 119.535 44.4179 119.006 44.8189 118.411C45.8708 118.072 46.3094 118.45 46.1345 119.546C46.0415 119.745 45.9054 119.896 45.7262 120Z" fill="#BA9660"/>
<path opacity="0.88" fill-rule="evenodd" clip-rule="evenodd" d="M47.9944 120C47.7524 120 47.5105 120 47.2686 120C46.843 119.688 46.7069 119.264 46.8603 118.73C47.0113 118.405 47.2683 118.253 47.6315 118.276C48.0402 118.246 48.2973 118.427 48.4026 118.82C48.5187 119.312 48.3826 119.705 47.9944 120Z" fill="#BA9660"/>
</g>
<defs>
<clipPath id="clip0_377_44401">
<rect width="225" height="120" fill="white"/>
</clipPath>
</defs>
</svg>
