<svg width="38" height="32" viewBox="0 0 38 32" fill="none" xmlns="http://www.w3.org/2000/svg">
<path d="M16.6663 10.6667C16.6663 11.0349 16.3679 11.3333 15.9997 11.3333C15.6315 11.3333 15.333 11.0349 15.333 10.6667C15.333 10.2985 15.6315 10 15.9997 10C16.3679 10 16.6663 10.2985 16.6663 10.6667Z" stroke="#25343E" stroke-width="2"/>
<path d="M16.6663 16C16.6663 16.3682 16.3679 16.6667 15.9997 16.6667C15.6315 16.6667 15.333 16.3682 15.333 16C15.333 15.6318 15.6315 15.3333 15.9997 15.3333C16.3679 15.3333 16.6663 15.6318 16.6663 16Z" stroke="#25343E" stroke-width="2"/>
<path d="M16.6663 21.3333C16.6663 21.7015 16.3679 22 15.9997 22C15.6315 22 15.333 21.7015 15.333 21.3333C15.333 20.9651 15.6315 20.6667 15.9997 20.6667C16.3679 20.6667 16.6663 20.9651 16.6663 21.3333Z" stroke="#25343E" stroke-width="2"/>
<path d="M22.6663 10.6667C22.6663 11.0349 22.3679 11.3333 21.9997 11.3333C21.6315 11.3333 21.333 11.0349 21.333 10.6667C21.333 10.2985 21.6315 10 21.9997 10C22.3679 10 22.6663 10.2985 22.6663 10.6667Z" stroke="#25343E" stroke-width="2"/>
<path d="M22.6663 16C22.6663 16.3682 22.3679 16.6667 21.9997 16.6667C21.6315 16.6667 21.333 16.3682 21.333 16C21.333 15.6318 21.6315 15.3333 21.9997 15.3333C22.3679 15.3333 22.6663 15.6318 22.6663 16Z" stroke="#25343E" stroke-width="2"/>
<path d="M22.6663 21.3333C22.6663 21.7015 22.3679 22 21.9997 22C21.6315 22 21.333 21.7015 21.333 21.3333C21.333 20.9651 21.6315 20.6667 21.9997 20.6667C22.3679 20.6667 22.6663 20.9651 22.6663 21.3333Z" stroke="#25343E" stroke-width="2"/>
</svg>
