<svg width="22" height="22" viewBox="0 0 22 22" fill="none" xmlns="http://www.w3.org/2000/svg">
<path d="M16 13.6667C18.7717 13.6667 19.9069 16.5305 20.3652 18.5946C20.6127 19.7094 19.7111 20.6667 18.5691 20.6667H17.3333M14.6667 8.66667C16.6917 8.66667 18 7.02505 18 5C18 2.97496 16.6917 1.33334 14.6667 1.33334M12.6244 20.6667H2.7089C1.95623 20.6667 1.36399 20.0422 1.51397 19.3047C1.92805 17.2683 3.28041 13.6667 7.66665 13.6667C12.0529 13.6667 13.4053 17.2683 13.8193 19.3047C13.9693 20.0422 13.3771 20.6667 12.6244 20.6667ZM11.3333 5C11.3333 7.02505 9.6917 8.66667 7.66665 8.66667C5.64161 8.66667 3.99999 7.02505 3.99999 5C3.99999 2.97496 5.64161 1.33334 7.66665 1.33334C9.6917 1.33334 11.3333 2.97496 11.3333 5Z" stroke="#667178" stroke-width="2" stroke-linecap="round" stroke-linejoin="round"/>
</svg>
