<svg width="32" height="32" viewBox="0 0 32 32" fill="none" xmlns="http://www.w3.org/2000/svg">
<path d="M16 24.3333C20.6666 24.3333 25.6666 22 25.6666 16C25.6666 10 20.6666 7.66667 16 7.66667C11.3333 7.66667 6.33331 10 6.33331 16C6.33331 17.3731 6.59516 18.5541 7.05495 19.5591C7.34155 20.1856 7.50232 20.8764 7.37536 21.5535L7.02577 23.418C6.85296 24.3396 7.66034 25.147 8.58199 24.9742L12.8585 24.1724C13.1946 24.1093 13.5393 24.1149 13.8771 24.1684C14.58 24.2799 15.2938 24.3333 16 24.3333Z" stroke="#667178" stroke-width="2" stroke-linecap="round" stroke-linejoin="round"/>
<path d="M12.6666 16C12.6666 16.3682 12.3682 16.6667 12 16.6667C11.6318 16.6667 11.3333 16.3682 11.3333 16C11.3333 15.6318 11.6318 15.3333 12 15.3333C12.3682 15.3333 12.6666 15.6318 12.6666 16Z" stroke="#929A9F" stroke-linecap="round" stroke-linejoin="round"/>
<path d="M16.6666 16C16.6666 16.3682 16.3682 16.6667 16 16.6667C15.6318 16.6667 15.3333 16.3682 15.3333 16C15.3333 15.6318 15.6318 15.3333 16 15.3333C16.3682 15.3333 16.6666 15.6318 16.6666 16Z" stroke="#929A9F" stroke-linecap="round" stroke-linejoin="round"/>
<path d="M20.6666 16C20.6666 16.3682 20.3682 16.6667 20 16.6667C19.6318 16.6667 19.3333 16.3682 19.3333 16C19.3333 15.6318 19.6318 15.3333 20 15.3333C20.3682 15.3333 20.6666 15.6318 20.6666 16Z" stroke="#929A9F" stroke-linecap="round" stroke-linejoin="round"/>
</svg>
